{"title":"Idrissa Ouedraogo - Kini and Adams (1997)","uid":7199300,"size":1475371040,"categoryP":"video","categoryS":"movies","magnet":"?xt=urn:btih:37e70d320b34012232ed29f676906038f53b8478&amp;dn=Idrissa+Ouedraogo+-+Kini+and+Adams+%281997%29&amp;tr=udp%3A%2F%2Ftracker.openbittorrent.com%3A80&amp;tr=udp%3A%2F%2Fopen.demonii.com%3A1337&amp;tr=udp%3A%2F%2Ftracker.coppersurfer.tk%3A6969&amp;tr=udp%3A%2F%2Fexodus.desync.com%3A6969","seeders":2,"leechers":0,"uploader":"Aaaameida","files":-1,"time":1334879629,"description":"Two friends, Kini and Adams, live as poor farmers in a rural South African community. They struggle to fix up an old car to enable them to move to the city to find a better life\n\nLanguage : English\nSubtitles: Spanish.srt\n &lt;a href=&quot;\nhttp://www.imdb.com/title/tt0119463&quot; rel=&quot;nofollow&quot; target=&quot;_NEW&quot;&gt;\nhttp://www.imdb.com/title/tt0119463&lt;/a&gt;\n\nScreemshoots:\n &lt;a href=&quot;\nhttp://img26.imageshack.us/img26/1038/vlcsnap2011103016h09m18.png&quot; rel=&quot;nofollow&quot; target=&quot;_NEW&quot;&gt;\nhttp://img26.imageshack.us/img26/1038/vlcsnap2011103016h09m18.png&lt;/a&gt; &lt;a href=&quot;\nhttp://img832.imageshack.us/img832/4531/vlcsnap2011103016h11m01.png&quot; rel=&quot;nofollow&quot; target=&quot;_NEW&quot;&gt;\nhttp://img832.imageshack.us/img832/4531/vlcsnap2011103016h11m01.png&lt;/a&gt; &lt;a href=&quot;\nhttp://img163.imageshack.us/img163/1846/vlcsnap2011103016h11m43.png&quot; rel=&quot;nofollow&quot; target=&quot;_NEW&quot;&gt;\nhttp://img163.imageshack.us/img163/1846/vlcsnap2011103016h11m43.png&lt;/a&gt; &lt;a href=&quot;\nhttp://img804.imageshack.us/img804/4503/vlcsnap2011103016h16m46.png&quot; rel=&quot;nofollow&quot; target=&quot;_NEW&quot;&gt;\nhttp://img804.imageshack.us/img804/4503/vlcsnap2011103016h16m46.png&lt;/a&gt; &lt;a href=&quot;\nhttp://img851.imageshack.us/img851/4840/vlcsnap2011103122h49m08.png&quot; rel=&quot;nofollow&quot; target=&quot;_NEW&quot;&gt;\nhttp://img851.imageshack.us/img851/4840/vlcsnap2011103122h49m08.png&lt;/a&gt;\n\nSource\tdvdrip\nRip Specs\tFormat : Matroska \nFormat version : Version 2 \nFile size : 1.37 GiB \nDuration : 1h 28mn \nOverall bit rate : 2 212 Kbps \nEncoded date : UTC 2011-10-29 22:01:49 \nWriting application : mkvmerge v4.9.1 ('Ich will') built on Jul 11 2011 23:53:15 \nWriting library : libebml v1.2.1 + libmatroska v1.1.1 \n\nVideo \nID : 1 \nFormat : AVC \nFormat/Info : Advanced Video Codec \nFormat profile : &lt;a class=&quot;__cf_email__&quot; href=&quot;/cdn-cgi/l/email-protection&quot; data-cfemail=&quot;7a32131d123a364e544b&quot;&gt;[email&amp;#160;protected]&lt;/a&gt;&lt;script cf-hash='f9e31' type=&quot;text/javascript&quot;&gt;\n/* &lt;![CDATA[ */!function(){try{var t=&quot;currentScript&quot;in document?document.currentScript:function(){for(var t=document.getElementsByTagName(&quot;script&quot;),e=t.length;e--;)if(t[e].getAttribute(&quot;cf-hash&quot;))return t[e]}();if(t&amp;&amp;t.previousSibling){var e,r,n,i,c=t.previousSibling,a=c.getAttribute(&quot;data-cfemail&quot;);if(a){for(e=&quot;&quot;,r=parseInt(a.substr(0,2),16),n=2;a.length-n;n+=2)i=parseInt(a.substr(n,2),16)^r,e+=String.fromCharCode(i);e=document.createTextNode(e),c.parentNode.replaceChild(e,c)}}}catch(u){}}();/* ]]&gt; */&lt;/script&gt; \nFormat settings, CABAC : Yes \nFormat settings, ReFrames : 4 frames \nCodec ID : V_MPEG4/ISO/AVC \nDuration : 1h 28mn \nBit rate : 2 018 Kbps \nWidth : 720 pixels \nHeight : 432 pixels \nDisplay aspect ratio : 1.667 \nFrame rate : 25.000 fps \nColor space : YUV \nChroma subsampling : 4:2:0 \nBit depth : 8 bits \nScan type : Progressive \nBits/(Pixel*Frame) : 0.260 \nStream size : 1.23 GiB (89%) \nWriting library : x264 core 116 r2074 2641b9e \n\nAudio \nID : 2 \nFormat : AC-3 \nFormat/Info : Audio Coding 3 \nMode extension : CM (complete main) \nCodec ID : A_AC3 \nDuration : 1h 28mn \nBit rate mode : Constant \nBit rate : 192 Kbps \nChannel(s) : 2 channels \nChannel positions : Front: L R \nSampling rate : 48.0 KHz \nBit depth : 16 bits \nCompression mode : Lossy \nStream size : 122 MiB (9%) \n\nUpped KG: niloarias\n","torrent":{"xt":"urn:btih:37e70d320b34012232ed29f676906038f53b8478","amp;dn":"Idrissa+Ouedraogo+-+Kini+and+Adams+%281997%29","amp;tr":["udp%3A%2F%2Ftracker.openbittorrent.com%3A80","udp%3A%2F%2Fopen.demonii.com%3A1337","udp%3A%2F%2Ftracker.coppersurfer.tk%3A6969","udp%3A%2F%2Fexodus.desync.com%3A6969"],"infoHash":"37e70d320b34012232ed29f676906038f53b8478","infoHashBuffer":{"type":"Buffer","data":[55,231,13,50,11,52,1,34,50,237,41,246,118,144,96,56,245,59,132,120]},"announce":[],"urlList":[]}}